<mxfile host="app.diagrams.net" modified="2023-10-29T09:29:49.458Z" agent="Mozilla/5.0 (Windows NT 10.0; Win64; x64) AppleWebKit/537.36 (KHTML, like Gecko) Chrome/120.0.0.0 Safari/537.36" version="22.0.8" etag="Bb9ou6vOBbbJJafdNQdu" type="github">
  <diagram name="第 1 页" id="QYUbUu2t7QBmTJFViEh7">
    <mxGraphModel>
      <root>
        <mxCell id="0" />
        <mxCell id="1" parent="0" />
      </root>
    </mxGraphModel>
  </diagram>
</mxfile>
